<?xml version="1.0" standalone="no"?>
<svg viewBox="0 0 200 200" xmlns="http://www.w3.org/2000/svg">
  <path fill="#B7B590" d="M33.9,-61.3C43.7,-53.1,51.3,-43.5,61,-33.1C70.7,-22.7,82.5,-11.3,87.1,2.7C91.7,16.6,89.1,33.3,79.9,44.6C70.7,55.8,54.9,61.8,40.5,66.8C26,71.8,13,75.8,0.7,74.7C-11.7,73.6,-23.4,67.2,-35.1,60.7C-46.8,54.1,-58.5,47.3,-63.6,37.1C-68.8,27,-67.5,13.5,-65.2,1.3C-63,-10.9,-59.8,-21.8,-55.6,-33.7C-51.5,-45.6,-46.3,-58.5,-36.9,-66.9C-27.5,-75.3,-13.7,-79.2,-0.8,-77.7C12.1,-76.3,24.1,-69.4,33.9,-61.3Z" transform="translate(100 100)" />
</svg>
