<svg xmlns="http://www.w3.org/2000/svg" version="1.1" xmlns:xlink="http://www.w3.org/1999/xlink" xmlns:svgjs="http://svgjs.com/svgjs" width="1920" height="270" preserveAspectRatio="none" viewBox="0 0 1920 270"><g mask="url(&quot;#SvgjsMask1464&quot;)" fill="none"><rect width="1920" height="270" x="0" y="0" fill="url(#SvgjsRadialGradient1465)"></rect><path d="M1621.031901470293 176.59704270287978L1591.6818381343928 110.67572113403038 1525.7605165655434 140.02578446993047 1555.1105799014435 205.94710603877985z" fill="rgba(187, 129, 81, 0.4)" class="triangle-float2"></path><path d="M1289.8310016964058-45.908787890621696L1231.6870267827082-14.993088034720262 1262.6027266386097 43.15088687897733 1320.7467015523073 12.235187023075895z" fill="rgba(187, 129, 81, 0.4)" class="triangle-float3"></path><path d="M740.073234279455 59.58510116434876L694.4061547978607-5.634247371023875 629.1868062624881 40.032832110570475 674.8538857440824 105.2521806459431z" fill="rgba(187, 129, 81, 0.4)" class="triangle-float3"></path><path d="M1310.7869027432007 14.148440048122307L1268.1763371935047 82.33959939926802 1336.3674965446503 124.95016494896412 1378.9780620943463 56.7590055978184z" fill="rgba(187, 129, 81, 0.4)" class="triangle-float1"></path><path d="M563.1884792598263 149.86695504754846L586.8003476755175 99.23113982393758 536.1645324519067 75.61927140824638 512.5526640362154 126.25508663185725z" fill="rgba(187, 129, 81, 0.4)" class="triangle-float1"></path><path d="M956.2407420104316 244.55287979950862L975.4916095692132 167.34186724072356 898.2805970104282 148.09099968194198 879.0297294516466 225.302012240727z" fill="rgba(187, 129, 81, 0.4)" class="triangle-float2"></path><path d="M509.7965260965449 143.75889535169216L552.1388039502197 164.41060413503993 572.7905127335674 122.06832628136512 530.4482348798927 101.41661749801736z" fill="rgba(187, 129, 81, 0.4)" class="triangle-float2"></path><path d="M1562.0157609119924 174.0173321833509L1563.0643003927696 234.08811880540947 1623.135087014828 233.03957932463229 1622.086547534051 172.96879270257372z" fill="rgba(187, 129, 81, 0.4)" class="triangle-float2"></path><path d="M1381.1304093401482 257.84460358307894L1430.8527068863489 214.62166975241433 1387.6297730556842 164.89937220621368 1337.9074755094837 208.12230603687829z" fill="rgba(187, 129, 81, 0.4)" class="triangle-float2"></path><path d="M1099.1290393709378-37.27258723123914L1035.1453854648967 10.942554310033664 1083.3605270061694 74.92620821607487 1147.3441809122105 26.711066674802055z" fill="rgba(187, 129, 81, 0.4)" class="triangle-float1"></path><path d="M1930.2062581511354 24.66737538232837L1880.0133970423078-23.80330716591688 1831.5427144940627 26.38955394291064 1881.73557560289 74.86023649115589z" fill="rgba(187, 129, 81, 0.4)" class="triangle-float1"></path><path d="M1233.2868165349248-27.049385960306207L1186.3658143200464-12.704195978428096 1200.7110043019245 34.21680623645038 1247.632006516803 19.87161625457227z" fill="rgba(187, 129, 81, 0.4)" class="triangle-float2"></path><path d="M742.4249595099883 252.44638794776787L718.5467479602324 186.841540897853 652.9419009103175 210.7197524476089 676.8201124600735 276.32459949752376z" fill="rgba(187, 129, 81, 0.4)" class="triangle-float2"></path><path d="M954.8552363135583 48.38428413652573L965.4724288879825 5.801050591346801 922.8891953428035-4.816141983077387 912.2720027683794 37.76709156210154z" fill="rgba(187, 129, 81, 0.4)" class="triangle-float3"></path><path d="M489.02558724830277 112.69078113738809L444.72568398247665 122.10701625788667 454.14191910297524 166.40691952371276 498.44182236880135 156.99068440321417z" fill="rgba(187, 129, 81, 0.4)" class="triangle-float2"></path><path d="M87.90892508407698 209.49994904746995L135.0666044066576 243.7620085973638 169.32866395655145 196.6043292747832 122.17098463397082 162.34226972488935z" fill="rgba(187, 129, 81, 0.4)" class="triangle-float2"></path><path d="M1773.8627434825105 85.91068335450386L1818.8371145327842 96.29383504589042 1829.2202662241707 51.319463995616815 1784.245895173897 40.936312304230256z" fill="rgba(187, 129, 81, 0.4)" class="triangle-float2"></path></g><defs><mask id="SvgjsMask1464"><rect width="1920" height="270" fill="#ffffff"></rect></mask><radialGradient cx="0%" cy="0%" r="1938.89" gradientUnits="userSpaceOnUse" id="SvgjsRadialGradient1465"><stop stop-color="rgba(208, 157, 116, 1)" offset="0"></stop><stop stop-color="rgba(195, 140, 97, 1)" offset="1"></stop></radialGradient><style>
            @keyframes float1 {
                0%{transform: translate(0, 0)}
                50%{transform: translate(-10px, 0)}
                100%{transform: translate(0, 0)}
            }

            .triangle-float1 {
                animation: float1 5s infinite;
            }

            @keyframes float2 {
                0%{transform: translate(0, 0)}
                50%{transform: translate(-5px, -5px)}
                100%{transform: translate(0, 0)}
            }

            .triangle-float2 {
                animation: float2 4s infinite;
            }

            @keyframes float3 {
                0%{transform: translate(0, 0)}
                50%{transform: translate(0, -10px)}
                100%{transform: translate(0, 0)}
            }

            .triangle-float3 {
                animation: float3 6s infinite;
            }
        </style></defs></svg>